<svg fill="#ffffff" width="800px" height="800px" version="1.1" viewBox="144 144 512 512" xmlns="http://www.w3.org/2000/svg">
 <g>
  <path d="m602.61 257.65c0-17.781-14.52-32.305-32.379-32.305l-340.44 0.003906c-17.855 0-32.379 14.523-32.379 32.305v247.39h405.2zm-371.63 13.82c0-6.9648 5.668-12.625 12.625-12.625h312.87c6.9648 0 12.633 5.6602 12.633 12.625v41.867c0 1.543-1.2461 2.7773-2.7773 2.7773h-332.57c-1.5352 0-2.7773-1.2383-2.7773-2.7773zm338.14 200.08c0 6.9648-5.7031 12.594-12.672 12.594h-312.88c-6.9648 0-12.594-5.6289-12.594-12.594v-150.4c0.89063 0.37109 1.8516 0.51953 2.8164 0.51953h332.52c0.96484 0 1.9258-0.14844 2.8164-0.51953z"/>
  <path d="m636.93 517.14c-2.6523-4.125-7.1406-6.5859-12.016-6.5859h-449.8c-4.8672 0-9.3633 2.4609-12.016 6.5859-2.6445 4.1055-3.0312 9.1797-1.1719 13.203l6.4375 21.707c6.2539 13.723 19.961 22.59 34.902 22.59h393.41c14.945 0 28.645-8.8672 35.035-22.953l6.3281-21.168c1.9062-4.3398 1.4922-9.3242-1.1172-13.379m-123.92 37.875c-5.8984 0-10.648-4.7422-10.648-10.648 0-5.8438 4.75-10.641 10.648-10.641 5.8438 0 10.648 4.793 10.648 10.641 0 5.9062-4.8008 10.648-10.648 10.648m35.016 0c-5.8984 0-10.648-4.7422-10.648-10.648 0-5.8438 4.75-10.641 10.648-10.641 5.8477 0 10.648 4.793 10.648 10.641 0 5.9062-4.8008 10.648-10.648 10.648m35.016 0c-5.8984 0-10.648-4.7422-10.648-10.648 0-5.8438 4.75-10.641 10.648-10.641 5.8438 0 10.645 4.793 10.645 10.641 0 5.9062-4.8008 10.648-10.645 10.648"/>
  <path d="m264.76 298.13c5.8438 0 10.645-4.7422 10.645-10.648 0-5.8438-4.8008-10.648-10.645-10.648-5.8984 0-10.648 4.8008-10.648 10.648 0 5.9062 4.75 10.648 10.648 10.648"/>
  <path d="m299.77 298.13c5.8438 0 10.645-4.7422 10.645-10.648 0-5.8438-4.8008-10.648-10.645-10.648-5.9062 0-10.648 4.8008-10.648 10.648 0 5.9062 4.7422 10.648 10.648 10.648"/>
  <path d="m334.79 298.13c5.8438 0 10.645-4.7422 10.645-10.648 0-5.8438-4.8008-10.648-10.645-10.648-5.8984 0-10.648 4.8008-10.648 10.648 0 5.9062 4.75 10.648 10.648 10.648"/>
  <path d="m370.14 335.11h-116.01c-1.5352 0-2.7773 1.2461-2.7773 2.7773 0 1.5352 1.2461 2.7773 2.7773 2.7773h116.01c1.5312 0 2.7773-1.2461 2.7773-2.7773s-1.2461-2.7773-2.7773-2.7773"/>
  <path d="m370.14 363.87h-116.01c-1.5352 0-2.7773 1.2461-2.7773 2.7773 0 1.5352 1.2461 2.7773 2.7773 2.7773h116.01c1.5312 0 2.7773-1.2461 2.7773-2.7773s-1.2461-2.7773-2.7773-2.7773"/>
  <path d="m370.14 392.63h-116.01c-1.5352 0-2.7773 1.2461-2.7773 2.7773 0 1.5352 1.2461 2.7773 2.7773 2.7773h116.01c1.5312 0 2.7773-1.2461 2.7773-2.7773s-1.2461-2.7773-2.7773-2.7773"/>
  <path d="m370.14 421.39h-116.01c-1.5352 0-2.7773 1.2461-2.7773 2.7773 0 1.5352 1.2461 2.7773 2.7773 2.7773h116.01c1.5312 0 2.7773-1.2461 2.7773-2.7773s-1.2461-2.7773-2.7773-2.7773"/>
  <path d="m370.14 450.15h-116.01c-1.5352 0-2.7773 1.2461-2.7773 2.7773 0 1.5352 1.2461 2.7773 2.7773 2.7773h116.01c1.5312 0 2.7773-1.2461 2.7773-2.7773 0-1.5352-1.2461-2.7773-2.7773-2.7773"/>
  <path d="m460.44 343.89c-28.977 0-52.531 23.566-52.531 52.609 0 28.969 23.555 52.523 52.531 52.523 29.035 0 52.602-23.555 52.602-52.523 0-29.043-23.566-52.609-52.602-52.609m23.922 72.535c1.082 1.082 1.082 2.8438 0 3.9258-0.54297 0.54688-1.2539 0.81641-1.9648 0.81641-0.71094 0-1.4219-0.26562-1.9648-0.81641l-19.969-19.969-19.961 19.969c-0.53906 0.54688-1.25 0.81641-1.9648 0.81641-0.71094 0-1.4219-0.26562-1.9648-0.81641-1.0898-1.082-1.0898-2.8438 0-3.9258l19.961-19.969-19.961-19.961c-1.0898-1.0898-1.0898-2.8438 0-3.9258 1.082-1.0898 2.8438-1.0898 3.9258 0l19.961 19.961 19.969-19.961c1.082-1.0898 2.8438-1.0898 3.9258 0 1.082 1.082 1.082 2.8359 0 3.9258l-19.961 19.961z"/>
 </g>
</svg>